<svg width="15" height="15" viewBox="0 0 15 15" fill="none" xmlns="http://www.w3.org/2000/svg">
<g id="arrow-Left">
<path id="Vector" d="M10.0378 1.53376C10.2136 1.70957 10.3123 1.94798 10.3123 2.19657C10.3123 2.44517 10.2136 2.68358 10.0378 2.85939L5.39717 7.5L10.0378 12.1406C10.2086 12.3174 10.3031 12.5542 10.3009 12.8001C10.2988 13.0459 10.2002 13.281 10.0264 13.4548C9.85256 13.6286 9.61742 13.7272 9.37161 13.7294C9.1258 13.7315 8.88899 13.637 8.71217 13.4662L3.40874 8.16281C3.23298 7.987 3.13425 7.74859 3.13425 7.5C3.13425 7.25141 3.23298 7.013 3.40874 6.83719L8.71217 1.53376C8.88798 1.35801 9.1264 1.25928 9.37499 1.25928C9.62358 1.25928 9.86199 1.35801 10.0378 1.53376Z" fill="#D5DBE1"/>
</g>
</svg>
