<svg width="15" height="15" viewBox="0 0 15 15" fill="none" xmlns="http://www.w3.org/2000/svg">
<g id="arrow-Right">
<path id="Vector" d="M4.9622 13.4662C4.78645 13.2904 4.68771 13.052 4.68771 12.8034C4.68771 12.5548 4.78645 12.3164 4.9622 12.1406L9.60283 7.5L4.9622 2.85939C4.79143 2.68257 4.69693 2.44576 4.69907 2.19995C4.7012 1.95414 4.7998 1.719 4.97362 1.54518C5.14744 1.37136 5.38258 1.27277 5.62839 1.27063C5.8742 1.2685 6.11101 1.36299 6.28783 1.53376L11.5913 6.83719C11.767 7.013 11.8658 7.25141 11.8658 7.5C11.8658 7.74859 11.767 7.987 11.5913 8.16281L6.28783 13.4662C6.11202 13.642 5.8736 13.7407 5.62501 13.7407C5.37642 13.7407 5.13801 13.642 4.9622 13.4662Z" fill="#D5DBE1"/>
</g>
</svg>
