<svg width="16" height="17" viewBox="0 0 16 17" fill="none" xmlns="http://www.w3.org/2000/svg">
<g id="Lock" clip-path="url(#clip0_27_1447)">
<path id="Vector" d="M12 5.83317H11.3334V4.49984C11.3334 2.65984 9.84002 1.1665 8.00002 1.1665C6.16002 1.1665 4.66669 2.65984 4.66669 4.49984V5.83317H4.00002C3.26669 5.83317 2.66669 6.43317 2.66669 7.1665V13.8332C2.66669 14.5665 3.26669 15.1665 4.00002 15.1665H12C12.7334 15.1665 13.3334 14.5665 13.3334 13.8332V7.1665C13.3334 6.43317 12.7334 5.83317 12 5.83317ZM8.00002 11.8332C7.26669 11.8332 6.66669 11.2332 6.66669 10.4998C6.66669 9.7665 7.26669 9.1665 8.00002 9.1665C8.73335 9.1665 9.33335 9.7665 9.33335 10.4998C9.33335 11.2332 8.73335 11.8332 8.00002 11.8332ZM10.0667 5.83317H5.93335V4.49984C5.93335 3.35984 6.86002 2.43317 8.00002 2.43317C9.14002 2.43317 10.0667 3.35984 10.0667 4.49984V5.83317Z" fill="#40464C"/>
</g>
<defs>
<clipPath id="clip0_27_1447">
<rect width="16" height="16" fill="white" transform="translate(0 0.5)"/>
</clipPath>
</defs>
</svg>
