<svg width="16" height="17" viewBox="0 0 16 17" fill="none" xmlns="http://www.w3.org/2000/svg">
<g id="tag">
<path id="Vector" d="M13.9377 1.83789H8.97499C8.60358 1.83797 8.24741 1.98558 7.98483 2.24824L1.74831 8.48476C1.48575 8.7474 1.33826 9.10356 1.33826 9.47493C1.33826 9.84629 1.48575 10.2025 1.74831 10.4651L6.71035 15.4271C6.97299 15.6897 7.32915 15.8372 7.70052 15.8372C8.07189 15.8372 8.42805 15.6897 8.69069 15.4271L14.9272 9.19062C15.1905 8.92872 15.3383 8.57229 15.3383 8.20115V3.23841C15.3383 2.86697 15.1907 2.51074 14.9281 2.24809C14.6654 1.98545 14.3092 1.83789 13.9377 1.83789ZM11.8419 6.73481C11.6554 6.73903 11.4699 6.70594 11.2963 6.63749C11.1228 6.56905 10.9647 6.46662 10.8313 6.33622C10.6978 6.20582 10.5918 6.05008 10.5194 5.87815C10.447 5.70622 10.4097 5.52155 10.4097 5.335C10.4096 5.14844 10.4469 4.96376 10.5192 4.79179C10.5915 4.61982 10.6974 4.46403 10.8308 4.33356C10.9641 4.2031 11.1222 4.10059 11.2957 4.03206C11.4692 3.96352 11.6546 3.93034 11.8412 3.93447C12.2071 3.94256 12.5553 4.09359 12.8113 4.35521C13.0672 4.61684 13.2106 4.96828 13.2107 5.3343C13.2108 5.70031 13.0676 6.05183 12.8118 6.31358C12.5559 6.57534 12.2078 6.72653 11.8419 6.73481Z" fill="#40464C"/>
</g>
</svg>
